<svg width="150" height="58" viewBox="0 0 150 58" fill="none" xmlns="http://www.w3.org/2000/svg">
    <path fill-rule="evenodd" clip-rule="evenodd" d="M44.543 9.11912C43.8516 8.97418 43.043 8.90171 42.1055 8.92587C41.168 8.93794 40.1133 9.04665 38.9648 9.2399C37.8047 9.44523 36.6094 9.71096 35.3438 10.0371C35.0156 10.8946 34.1016 12.2112 32.6016 13.9988C31.1133 15.7984 29.2383 17.9846 26.9531 20.5814C27.75 20.4123 28.6289 20.3157 29.5781 20.2674C30.5273 20.2191 31.4648 20.2312 32.4258 20.2795C33.4219 19.8809 34.5 19.4098 35.6367 18.8301C36.7734 18.2624 37.8867 17.6464 38.9648 16.9821C40.0547 16.3419 41.0859 15.6535 42.0586 14.9409C43.0195 14.2282 43.8516 13.5639 44.543 12.9238C45.2227 12.2716 45.7266 11.6918 46.0078 11.1845C46.2891 10.6772 46.3008 10.2545 46.0547 9.94044C45.7266 9.54186 45.2227 9.27614 44.543 9.11912Z" fill="#063EF9"/>
    <path fill-rule="evenodd" clip-rule="evenodd" d="M34.1016 22.671C33.2812 23.0696 32.4023 23.4681 31.4883 23.8788C30.5625 24.3015 29.6602 24.6397 28.793 24.9175C27.9375 25.2074 27.1406 25.3886 26.4258 25.4852C25.6992 25.5818 25.125 25.5215 24.6914 25.3282C24.2578 25.1349 24 24.7122 23.9297 24.0962L22.7812 25.4731L20.5078 28.2874C21.7734 28.4082 23.1445 28.541 24.6445 28.6377C26.1211 28.7464 27.7031 28.8309 29.4023 28.9034C30.0469 28.9517 30.4805 29.0121 30.7031 29.1329C30.9258 29.2416 30.9492 29.3624 30.8086 29.4952C30.668 29.616 30.375 29.7489 29.918 29.8576C29.4727 29.9783 28.9102 30.0629 28.2188 30.0871L18.7969 30.4736C18.1641 31.3674 17.6602 32.0679 17.3203 32.6235C16.9805 33.167 16.7109 33.6018 16.5586 33.928C16.3945 34.2541 16.2773 34.5077 16.1836 34.6889C16.0898 34.8701 15.9609 35.0271 15.8203 35.1479C15.6211 35.3532 15.293 35.4136 14.8477 35.3532C14.4258 35.2928 14.0039 35.1358 13.582 34.8821C13.1836 34.6285 12.8203 34.3386 12.5039 33.9642C12.1992 33.6018 12.0703 33.2516 12.1523 32.8892C12.1758 32.6839 12.293 32.4302 12.4453 32.1283C12.5977 31.8143 12.832 31.4398 13.1133 31.0171C12.0703 31.1862 11.3086 31.3915 10.8164 31.6572C10.3242 31.923 10.0078 32.2491 9.86719 32.6477C9.62109 33.312 9.75 33.9883 10.2422 34.6768C10.7461 35.3653 11.4141 36.0054 12.2461 36.5973C13.0664 37.1891 13.9805 37.7085 14.9414 38.1312C15.9141 38.566 16.7461 38.8076 17.4258 38.8801C18.7969 39.0371 20.332 38.8559 22.0078 38.3365C23.6953 37.8051 25.3594 37.0925 27.0117 36.1987C28.6875 35.2928 30.2812 34.2541 31.8164 33.0825C33.3398 31.9109 34.6641 30.7755 35.7656 29.6402C36.8672 28.5048 37.6875 27.454 38.2031 26.4877C38.7187 25.5215 38.8242 24.7605 38.4961 24.2412C38.1328 23.7097 37.5117 23.3474 36.6562 23.1299C35.7773 22.9246 34.9336 22.7676 34.1016 22.671Z" fill="#063EF9"/>
    <path fill-rule="evenodd" clip-rule="evenodd" d="M75.9609 29.0242C76.8164 28.5773 77.6602 28.1062 78.4688 27.5748C79.2891 27.0554 79.9922 26.536 80.5781 26.0287C81.1758 25.5215 81.6094 25.0504 81.8789 24.6035C82.125 24.1566 82.1601 23.8063 81.9375 23.5406C81.7266 23.3111 81.4453 23.1903 81.082 23.1783C80.7188 23.1662 80.3672 23.2145 80.0039 23.3474C79.3476 23.5406 78.6445 23.8909 77.8945 24.3861C77.1328 24.8813 76.3594 25.4611 75.5977 26.1374C74.8242 26.8018 74.0508 27.5385 73.3008 28.3236C72.5391 29.1087 71.8711 29.9059 71.2383 30.691C71.8477 30.6668 72.5742 30.4856 73.418 30.1716C74.2383 29.8576 75.082 29.4831 75.9609 29.0242Z" fill="#063EF9"/>
    <path fill-rule="evenodd" clip-rule="evenodd" d="M55.9805 28.5531C56.9414 27.9975 57.8789 27.4298 58.7695 26.8018C59.6719 26.1858 60.457 25.5698 61.125 24.9779C61.793 24.3861 62.2734 23.8426 62.5898 23.3474C62.8828 22.8521 62.9297 22.4898 62.7188 22.2241C62.4961 21.9946 62.2148 21.8617 61.8516 21.8497C61.5 21.8376 61.1367 21.898 60.7852 22.0187C60.1289 22.2241 59.3789 22.5985 58.5352 23.1783C57.6914 23.758 56.8125 24.4344 55.9336 25.2195C55.043 26.0046 54.1758 26.8742 53.2852 27.8284C52.3945 28.7947 51.5977 29.7247 50.8828 30.6427C51.5391 30.546 52.3008 30.3165 53.2031 29.93C54.1172 29.5556 55.0312 29.0846 55.9805 28.5531Z" fill="#063EF9"/>
    <path fill-rule="evenodd" clip-rule="evenodd" d="M91.2656 31.621C89.6719 33.4207 88.2305 35.1237 86.9531 36.6939C85.6758 38.2761 84.6094 39.7014 83.7773 40.9334C82.957 42.1895 82.3828 43.2524 82.0547 44.1462C81.7266 45.04 81.7031 45.7043 81.9844 46.127C82.2656 46.5498 82.8984 46.4894 83.8594 45.9338C84.8086 45.3661 85.875 44.4844 87.0351 43.2403C88.1836 42.0083 89.3086 40.5106 90.3867 38.723C91.4648 36.9475 92.2734 35.0633 92.8242 33.0583C92.543 32.8892 92.2148 32.5993 91.8516 32.2128L91.2656 31.621Z" fill="#063EF9"/>
    <path fill-rule="evenodd" clip-rule="evenodd" d="M149.953 17.7309C149.836 16.511 149.473 15.3394 148.816 14.0833C147.797 12.1629 146.145 10.8222 144.152 10.2666C143.66 10.1337 143.145 10.0491 142.594 10.0008C142.09 9.08288 141.445 8.22532 140.602 7.37984C139.664 6.44981 138.633 5.73719 137.437 5.19367C136.512 4.79509 135.574 4.60183 134.625 4.60183C132.445 4.60183 130.418 5.70096 129.234 7.47647C128.777 8.15285 128.121 8.98626 127.266 9.98876C126.844 10.484 126.398 10.9792 125.953 11.4865C125.906 11.4865 125.66 11.4623 125.59 11.4623C124.699 11.1 123.797 10.9067 122.883 10.9067C122.168 10.9067 121.465 11.0275 120.797 11.257C120.504 11.0637 120.188 10.8826 119.859 10.7014C118.688 10.1095 117.41 9.80758 116.074 9.80758C115.699 9.80758 115.312 9.84382 114.926 9.89213C114.75 8.8534 114.352 7.83882 113.742 6.88463C113.191 6.00292 112.523 5.20575 111.691 4.43274C110.812 3.65973 109.84 3.04373 108.785 2.62099C107.977 2.29488 107.133 2.13786 106.289 2.13786C104.32 2.13786 102.445 3.03165 101.145 4.58976L101.074 4.68638C99.2461 6.96918 97.1953 9.409 94.9805 11.9334C93.3516 13.7934 91.7109 15.6656 90.0586 17.5377C89.3203 17.6222 88.5937 17.8276 87.8789 18.1175C87.832 18.0691 87.7852 18.0208 87.7383 17.9846C86.3672 16.6077 84.75 15.6052 82.9102 15.0254C81.7031 14.6389 80.5312 14.4457 79.418 14.4457C78.832 14.4457 78.2578 14.494 77.7188 14.6027C76.2773 14.8805 74.7656 15.4361 73.2188 16.2453C72.1406 16.813 71.0508 17.5015 69.9258 18.3107C69.4687 17.7189 68.9648 17.1512 68.4023 16.6197C67.0195 15.2307 65.4023 14.2524 63.5859 13.6847C62.3906 13.2982 61.2188 13.105 60.1055 13.105C59.5078 13.105 58.9219 13.1653 58.3594 13.2741C57.6094 13.419 56.8359 13.6606 56.0391 13.9625C56.0859 13.1291 56.0273 12.1991 55.7812 11.1483C55.4297 9.66264 54.7734 8.17701 53.8594 6.82424C52.9805 5.47147 51.8086 4.21533 50.3789 3.09205C48.8789 1.92045 47.1094 1.02666 45.1172 0.446897L44.9414 0.398584C43.8984 0.132861 42.7266 0 41.332 0C40.6875 0 39.9727 0.0241566 39.2695 0.0845481C37.3477 0.217409 35.2734 0.49521 32.9531 0.905873C30.7031 1.30446 28.3477 1.81175 25.9453 2.42774C23.5312 3.05581 21.2344 3.7322 19.1367 4.44482C16.9219 5.19367 14.9062 6.02707 13.1602 6.89671C10.8047 8.08039 9.19922 9.30029 8.10938 10.7376L7.99219 10.8946C7.26562 11.9092 6.16406 14.0833 6.97266 17.1391C7.24219 18.1778 7.67578 19.1803 8.27344 20.207L8.37891 20.3761C8.77734 20.9921 9.19922 21.5477 9.64453 22.0308C8.69531 22.212 7.85156 22.5019 7.07812 22.9125C5.87109 23.5285 4.76953 24.4948 3.75 25.8355C2.98828 26.8138 2.28516 27.9492 1.6875 29.1691C1.06641 30.4252 0.609375 31.7055 0.316406 32.9979C-0.164063 34.9667 -0.0937503 36.9113 0.492187 38.5781C1.14844 40.5106 2.55469 41.8755 3.59766 42.7813C4.6875 43.7114 6.04688 44.5689 7.65234 45.3661C9.17578 46.1029 10.9336 46.731 12.8672 47.2262C14.918 47.7455 17.1328 48.0113 19.4531 48.0113C22.6875 48.0113 25.9219 47.4798 29.0508 46.429C31.9336 45.4627 34.6992 44.2066 37.3008 42.6606C38.4727 41.96 39.5625 41.2232 40.5937 40.4623C41.3555 42.2499 42.375 43.8322 43.6523 45.1849C45.9961 47.6247 48.5508 48.1441 50.2852 48.1441C50.4727 48.1441 50.6602 48.1441 50.7422 48.132C52.418 48.0596 54.1758 47.4919 56.3203 46.3565C57.7969 45.5594 59.3203 44.6052 60.8672 43.5423C61.4297 43.1558 61.9922 42.7572 62.5547 42.3465C63.3164 43.4698 64.1719 44.4602 65.1328 45.2936C66.9023 46.8397 69 47.6489 71.1797 47.6489C71.3906 47.6489 71.6016 47.6368 71.8125 47.6247C72.4453 47.5885 73.0898 47.4798 73.7578 47.3107C73.8633 48.6031 74.0625 49.7868 74.3906 50.9342C74.8711 52.5889 75.6211 54.0142 76.5351 55.0891C78.082 56.9613 80.2851 58 82.7226 58C84.375 58 86.0156 57.5048 87.6797 56.5265C88.9102 55.838 90.1172 54.9321 91.3945 53.7605C92.6133 52.6252 93.7031 51.4536 94.6992 50.1853C95.8242 48.7843 96.8555 47.2745 97.7344 45.7164C97.7695 45.656 97.8164 45.5835 97.8516 45.5231C99.2461 47.6247 101.449 48.8567 103.91 48.8567C104.461 48.8567 105.023 48.7963 105.609 48.6635C106.969 48.3494 108.34 47.7093 109.887 46.6464C110.309 46.3444 110.742 46.0304 111.176 45.7043C112.617 47.5523 114.785 48.6272 117.281 48.6272C119.836 48.6272 122.555 47.3711 126.926 44.1462C130.23 41.7305 134.227 38.1674 139.137 33.2274C140.566 31.778 141.305 30.1354 141.305 28.3357C141.305 27.1762 141 26.1012 140.473 25.1833C140.66 25.1953 140.813 25.1953 140.93 25.2074C140.965 25.2074 141 25.2195 141.035 25.2195C141.832 25.4973 142.629 25.6422 143.426 25.6422C145.535 25.6422 147.457 24.6518 148.605 23.0092C149.355 21.9584 150.199 20.2191 149.953 17.7309ZM113.449 17.4169C113.578 16.9942 113.801 16.6197 114.105 16.2695C114.422 15.9313 114.832 15.7018 115.324 15.6052C115.957 15.5085 116.496 15.581 116.988 15.8347C117.469 16.0883 117.879 16.4023 118.16 16.813C118.465 17.2237 118.652 17.6585 118.746 18.1295C118.84 18.5885 118.816 18.9871 118.676 19.3011C118.488 19.6272 118.172 19.8809 117.75 20.0621C117.328 20.2553 116.859 20.364 116.379 20.3882C115.887 20.4123 115.406 20.3882 114.938 20.2915C114.469 20.1949 114.105 20.0137 113.859 19.748C113.613 19.4702 113.449 19.12 113.379 18.6972C113.297 18.2745 113.332 17.8397 113.449 17.4169ZM43.6055 18.8784C42.6211 19.2891 41.6836 19.6635 40.793 19.9654C39.9023 20.2795 39.1055 20.5452 38.4023 20.7505C37.6992 20.9679 37.1953 21.125 36.9141 21.2216C38.0742 21.0766 39.0938 21.3061 39.9727 21.8859C40.8633 22.4536 41.5664 23.1903 42.1172 24.0721C42.668 24.9659 43.0078 25.8959 43.1484 26.8621C43.3008 27.8284 43.2422 28.6618 42.9961 29.3503C42.4922 30.6064 41.4961 31.9713 39.9961 33.4448C38.4961 34.9305 36.668 36.3315 34.5234 37.6481C32.3672 38.9525 30.0352 40.0517 27.4805 40.9213C24.9375 41.7909 22.3594 42.2257 19.7695 42.2257C17.9297 42.2257 16.2305 42.0204 14.6484 41.6098C13.0664 41.1991 11.707 40.7039 10.5586 40.1362C9.39844 39.5564 8.46094 38.9525 7.74609 38.3365C7.03125 37.7085 6.58594 37.177 6.44531 36.7543C6.23438 36.1383 6.21094 35.3773 6.42188 34.4956C6.62109 33.6018 6.91406 32.7322 7.33594 31.8626C7.74609 31.005 8.21484 30.2078 8.74219 29.5194C9.25781 28.8309 9.72656 28.384 10.125 28.1908C10.6172 27.913 11.3203 27.768 12.2227 27.7318C13.1133 27.7076 14.2266 27.7318 15.5273 27.8284C16.4883 26.6206 17.5898 25.304 18.8203 23.8667C20.0508 22.4294 21.3047 21.0042 22.582 19.5789C23.1797 18.9025 23.7773 18.2382 24.375 17.5739C25.0312 16.8372 25.6758 16.1245 26.3086 15.4119C26.8945 14.7597 27.4453 14.1437 27.9609 13.5639C28.5234 12.9359 29.0508 12.3561 29.5312 11.8005C28.0898 12.2957 26.6719 12.8151 25.2773 13.3828C23.8945 13.9504 22.582 14.494 21.375 15.0616C20.1562 15.6052 19.0664 16.1487 18.0938 16.7043C17.1328 17.2357 16.3477 17.7551 15.7734 18.2503C15.4805 18.504 15.1289 18.4919 14.7422 18.1899C14.332 17.9 13.9922 17.4894 13.6758 16.9821C13.3828 16.4748 13.1484 15.9554 13.0078 15.4119C12.8672 14.8684 12.9023 14.4577 13.1133 14.1558C13.6289 13.4673 14.6133 12.7547 16.1016 11.9938C17.5898 11.2328 19.3125 10.5081 21.3047 9.81966C23.2852 9.1312 25.4062 8.49105 27.6562 7.89921C29.918 7.30737 32.0977 6.82424 34.1836 6.44981C36.2812 6.06331 38.168 5.80966 39.8672 5.68888C41.5664 5.55602 42.832 5.61641 43.6641 5.83382C44.9297 6.20825 46.0078 6.75177 46.9102 7.47647C47.8125 8.20117 48.5391 8.97418 49.0781 9.81966C49.6289 10.6531 49.9922 11.4744 50.1562 12.2595C50.3437 13.0446 50.332 13.6968 50.1094 14.1799C49.8164 14.808 49.3359 15.3998 48.6797 15.9554C48.0234 16.5231 47.2383 17.0425 46.3828 17.5377C45.5273 18.0208 44.6016 18.4798 43.6055 18.8784ZM143.484 19.3011C143.285 19.591 142.922 19.591 142.383 19.3374C142.16 19.2407 141.738 19.1683 141.117 19.1079C140.484 19.0475 139.711 19.0354 138.82 19.0475C138.047 19.0596 137.215 19.0958 136.301 19.132L135.832 19.1562C134.754 19.2045 133.617 19.2649 132.434 19.3253C131.648 20.1708 130.805 21.0646 129.937 21.9946V22.0067L129.316 22.6589C129.129 22.8642 128.93 23.0696 128.742 23.2749L128.273 23.7701L128.262 23.7822C127.535 24.5673 126.82 25.3161 126.141 26.065C125.109 27.1641 124.148 28.2028 123.258 29.1812C122.367 30.1716 121.617 31.0292 121.008 31.7418C120.539 32.3095 120.117 32.8409 119.766 33.3844C119.402 33.9038 119.109 34.3869 118.91 34.8217C118.688 35.2807 118.547 35.6552 118.465 35.9813C118.395 36.3074 118.441 36.5489 118.582 36.6697C118.828 36.9355 119.414 36.9475 120.363 36.7422C121.289 36.5248 122.438 36.09 123.762 35.4377C125.086 34.7734 126.574 33.9038 128.168 32.8167C129.773 31.7297 131.379 30.4494 133.008 28.9758C133.371 28.6135 133.711 28.3599 134.039 28.2149C134.367 28.0579 134.613 27.9975 134.801 28.0217C134.988 28.0337 135.07 28.1304 135.07 28.2874C135.07 28.4444 134.93 28.6739 134.637 28.9758C130.055 33.6743 126.246 37.1649 123.211 39.4236C120.188 41.6943 118.125 42.8297 117.047 42.8297C116.109 42.8297 115.488 42.3465 115.172 41.3561C114.855 40.3778 114.832 39.1337 115.066 37.6601C115.301 36.1745 115.746 34.556 116.426 32.8288C116.461 32.7443 116.496 32.6597 116.52 32.5752L116.555 32.4906C116.566 32.4544 116.578 32.4302 116.59 32.394C116.156 32.853 115.687 33.3361 115.207 33.8313C114.234 34.8217 113.215 35.8605 112.172 36.8871C111.129 37.9259 110.109 38.868 109.113 39.7135C108.117 40.571 107.191 41.2957 106.336 41.9117C105.469 42.5156 104.73 42.878 104.121 43.0229C103.395 43.192 102.832 42.878 102.445 42.105C102.059 41.332 101.789 40.3536 101.684 39.182C101.566 37.9983 101.59 36.7422 101.707 35.4015C101.836 34.0729 102.07 32.9134 102.387 31.923C101.332 32.6235 100.242 33.1791 99.1055 33.6018C97.9688 34.0246 96.8203 34.1937 95.6719 34.097C95.4492 35.6431 95.0742 37.1529 94.5234 38.6264C93.9844 40.1 93.3281 41.5252 92.5547 42.8901C91.793 44.2549 90.9492 45.511 90.0469 46.6585C89.1445 47.818 88.2305 48.7963 87.3398 49.6418C86.4375 50.4873 85.582 51.1395 84.7617 51.6106C83.9531 52.0937 83.2734 52.3353 82.6875 52.3353C82.0078 52.3353 81.4453 52.0696 81.0234 51.5502C80.5781 51.0188 80.25 50.3303 80.0156 49.509C79.7812 48.6635 79.6406 47.7214 79.582 46.6706C79.5352 45.6198 79.5703 44.5569 79.6875 43.4698C79.8164 42.3828 80.0156 41.344 80.3203 40.3415C80.6016 39.339 80.9766 38.4694 81.3984 37.7568C82.0078 36.7422 82.7578 35.631 83.6484 34.4111C82.9687 34.9546 82.2539 35.5223 81.5039 36.09C80.2031 37.0925 78.9258 38.0225 77.6953 38.8559C76.4414 39.7014 75.2695 40.3898 74.1797 40.9454C73.0898 41.5131 72.1641 41.803 71.4492 41.8392C70.582 41.9117 69.7734 41.5977 69.0117 40.9213C68.25 40.2449 67.6055 39.4115 67.0547 38.4332C66.5156 37.4427 66.1055 36.3919 65.8359 35.2445C65.5781 34.1091 65.5312 33.1308 65.6953 32.2611C64.5703 33.2516 63.3047 34.3386 61.8867 35.4981C60.4688 36.6697 59.0508 37.7447 57.6445 38.7351C56.2383 39.7255 54.8906 40.571 53.6484 41.2595C52.3828 41.9479 51.3633 42.3103 50.6133 42.3465C49.6758 42.4069 48.8203 42.0204 48.0352 41.187C47.25 40.3415 46.6289 39.339 46.1484 38.1674C45.668 36.9838 45.3516 35.7518 45.1992 34.5198C45.0586 33.2636 45.1641 32.2491 45.5273 31.464C46.0195 30.3165 46.8516 29.0483 47.9883 27.6593C49.125 26.2824 50.3789 24.99 51.75 23.7701C53.1328 22.5623 54.5039 21.4994 55.8867 20.6177C57.2812 19.7239 58.5 19.1803 59.543 18.9871C60.1523 18.8542 60.9375 18.9267 61.875 19.2407C62.8125 19.5306 63.6328 20.05 64.3594 20.8109C64.9687 21.3786 65.4609 22.0067 65.8359 22.7072C66.2109 23.4198 66.3281 24.2049 66.1406 25.0504C66.0234 25.4731 65.5312 26.1012 64.6172 26.9225C63.7148 27.7318 62.5312 28.5652 61.043 29.3865C59.5664 30.1958 57.8555 30.9205 55.9102 31.5123C53.9531 32.0921 51.8789 32.3699 49.6758 32.2974C48.9141 33.4448 48.375 34.4594 48.0469 35.3532C47.7187 36.2349 47.7656 36.8871 48.1641 37.2736C48.5156 37.6481 49.125 37.7809 50.0039 37.6964C50.8594 37.6118 51.8906 37.3944 53.0625 37.0079C54.2344 36.6335 55.4883 36.1383 56.8242 35.4981C58.1602 34.8821 59.4844 34.2058 60.8086 33.4811C62.1211 32.7564 63.3516 31.9954 64.5 31.2345C65.6367 30.4615 66.6094 29.7368 67.3828 29.0483C68.0742 28.0579 68.8828 27.0796 69.8555 26.1133C70.8164 25.1591 71.8008 24.2653 72.832 23.4561C73.8633 22.6589 74.8945 21.9704 75.9258 21.4148C76.957 20.8592 77.9062 20.4969 78.7734 20.3278C79.3828 20.207 80.1562 20.2795 81.0937 20.5814C82.0312 20.8834 82.8633 21.4028 83.5781 22.1637C84.1875 22.7314 84.6914 23.3594 85.0664 24.06C85.4414 24.7605 85.5469 25.5577 85.3594 26.4032C85.2539 26.7897 84.8086 27.3332 84.0352 27.9975C83.25 28.6739 82.207 29.3261 80.8945 29.9421C79.582 30.5581 78.0234 31.1016 76.207 31.5244C74.4023 31.9471 72.4102 32.1283 70.2539 32.0679C69.5391 33.1308 69.0586 34.0729 68.7891 34.9305C68.543 35.788 68.6016 36.404 69.0117 36.8026C69.3633 37.1649 69.9727 37.322 70.8164 37.2616C71.6602 37.2012 72.668 37.0079 73.8164 36.6456C74.9766 36.2711 76.207 35.8122 77.5195 35.2324C78.832 34.6647 80.1445 34.0246 81.4219 33.312C82.7109 32.5993 83.9062 31.8746 85.043 31.1379C86.1914 30.4011 87.1289 29.6885 87.8906 29L87.9023 28.9879C88.1133 28.7343 88.3359 28.4686 88.5469 28.2028H88.5586V28.1908C88.7344 27.9854 88.9102 27.7801 89.0742 27.5627C88.9336 26.9105 88.8633 26.3428 88.8633 25.8596C88.8633 25.3886 88.8867 25.0021 88.9687 24.7122C89.0039 24.519 89.1094 24.3015 89.2969 24.0962C89.4844 23.8788 89.707 23.7097 89.9648 23.5648C90.2344 23.444 90.5273 23.3594 90.8203 23.3474C91.125 23.3353 91.3828 23.3836 91.6055 23.5165L92.1562 23.903C94.5469 21.1491 96.9023 18.4073 99.2461 15.6776C101.59 12.9479 103.664 10.4236 105.469 8.1287C105.727 7.81466 106.055 7.70596 106.441 7.86298C106.828 8.01999 107.227 8.26156 107.613 8.61183C107.988 8.9621 108.305 9.34861 108.562 9.77135C108.82 10.182 108.938 10.5202 108.938 10.7497C108.914 10.9792 108.504 11.5952 107.754 12.5977C106.992 13.5881 105.984 14.8563 104.73 16.3903C103.465 17.9242 101.977 19.6393 100.289 21.5718C98.5898 23.5044 96.8086 25.5094 94.9336 27.611C95.2969 28.4686 95.5547 29.302 95.7422 30.1233C96.8203 30.6427 98.0625 30.8963 99.4453 30.8721C100.84 30.848 102.34 30.1958 103.957 28.9517L104.004 28.9034C104.941 27.5506 106.055 26.2341 107.332 24.9296C108.633 23.6131 109.852 22.3932 111 21.2337C111.258 21.0042 111.598 20.9679 112.008 21.137C112.43 21.3061 112.793 21.5718 113.145 21.9463C113.484 22.3328 113.73 22.7314 113.906 23.1662C114.059 23.5889 114.047 23.9513 113.824 24.2412C113.285 24.8692 112.641 25.5818 111.879 26.379C111.211 27.0796 110.543 27.8163 109.852 28.5773L109.547 28.9034C108.75 29.773 108 30.6427 107.273 31.5244C106.547 32.394 105.937 33.2274 105.457 34.0125C104.977 34.7976 104.637 35.5223 104.461 36.1504C104.285 36.7784 104.355 37.3099 104.684 37.6964C104.871 37.9621 105.246 38.0104 105.82 37.8292C106.395 37.6481 107.086 37.322 107.883 36.863C108.68 36.404 109.535 35.8363 110.473 35.1599C111.41 34.4956 112.359 33.783 113.309 33.0704C114.27 32.3457 115.172 31.621 116.016 30.8963C116.625 30.3769 117.188 29.8938 117.703 29.459L117.727 29.4469C117.902 29.2778 118.09 29.1208 118.266 28.9758L118.324 28.9155C118.535 28.5652 118.746 28.227 118.969 27.8888C119.437 27.1762 120.316 26.0891 121.594 24.6518C122.871 23.2145 124.289 21.6685 125.836 20.0017C124.219 20.0983 123.246 20.0621 122.918 19.893C122.484 19.7239 122.18 19.434 121.992 18.9871C121.805 18.5281 121.746 18.1295 121.781 17.7309C121.805 17.3324 121.969 17.0304 122.215 16.813C122.461 16.6077 122.824 16.6318 123.293 16.8855C123.574 17.0546 124.172 17.1633 125.062 17.2357C125.953 17.3082 127.008 17.3203 128.273 17.2961L128.695 16.8009C129.621 15.726 130.512 14.6993 131.367 13.6968C132.34 12.5373 133.137 11.5106 133.758 10.5806C133.969 10.2545 134.32 10.2062 134.789 10.4115C135.258 10.6289 135.715 10.9671 136.148 11.4019C136.582 11.8488 136.922 12.3078 137.18 12.8392C137.391 13.3344 137.438 13.7089 137.25 13.9263C137.004 14.2524 136.687 14.6389 136.301 15.0737C136.125 15.267 135.937 15.4723 135.727 15.7018C135.492 15.9675 135.246 16.2453 134.977 16.5473C135.773 16.4506 136.547 16.3419 137.297 16.2212C138.07 16.1125 138.773 16.0158 139.406 15.9313C140.062 15.8467 140.625 15.7863 141.117 15.7622C141.598 15.738 141.973 15.7501 142.219 15.8226C142.664 15.9434 143.004 16.2574 143.25 16.7285C143.496 17.2116 143.66 17.6826 143.707 18.1658C143.754 18.6489 143.684 19.0233 143.484 19.3011Z" fill="#063EF9"/>
</svg>
