<svg width="20" height="20" viewBox="0 0 20 20" fill="none" xmlns="http://www.w3.org/2000/svg">
    <path d="M5.49642 2.875L18.1631 15.5417" stroke="#A0A3BD" stroke-width="2" stroke-linecap="round"/>
    <path d="M18.6288 10.9739C18.7696 10.4659 18.7054 9.91506 18.4361 9.44607C17.0799 7.08388 15.1309 5.32842 12.875 4.55043M16.5387 13.9583C14.805 15.7221 12.6204 16.7738 10.2465 16.7738C6.89298 16.7738 3.91726 14.6751 2.05685 11.4348C1.70327 10.819 1.70327 10.062 2.05685 9.44614C3.32733 7.23327 5.11797 5.55284 7.19385 4.70963" stroke="#A0A3BD" stroke-width="2" stroke-linecap="round" stroke-linejoin="round"/>
    <path d="M12.5498 9.86156C12.6755 10.3618 12.635 10.8893 12.4343 11.3644C12.2337 11.8395 11.8838 12.2364 11.4377 12.4951C10.9915 12.7538 10.4732 12.8602 9.96119 12.7983C9.44917 12.7364 8.97123 12.5094 8.5996 12.1518C8.22797 11.7942 7.98286 11.3253 7.9013 10.816C7.81975 10.3068 7.90618 9.7848 8.14755 9.32901C8.38892 8.87322 8.77209 8.50839 9.23916 8.28965C9.70623 8.07092 10.2318 8.01017 10.7365 8.11659" stroke="#A0A3BD" stroke-width="2"/>
</svg>
